<svg width="19" height="15" viewBox="0 0 19 15" fill="none" xmlns="http://www.w3.org/2000/svg">
<path d="M2.29358 0C1.68528 0 1.1019 0.184654 0.671773 0.513339C0.241644 0.842025 0 1.28782 0 1.75265L0 12.2685C0 12.7334 0.241644 13.1792 0.671773 13.5079C1.1019 13.8365 1.68528 14.0212 2.29358 14.0212H16.055C16.6633 14.0212 17.2467 13.8365 17.6768 13.5079C18.107 13.1792 18.3486 12.7334 18.3486 12.2685V1.75265C18.3486 1.28782 18.107 0.842025 17.6768 0.513339C17.2467 0.184654 16.6633 0 16.055 0L2.29358 0ZM6.30275 5.28687C6.26578 5.28725 6.2291 5.28187 6.19495 5.27105C6.1608 5.26022 6.1299 5.24419 6.10414 5.22393C6.07838 5.20367 6.05829 5.17961 6.04512 5.15321C6.03194 5.12681 6.02596 5.09864 6.02752 5.07042C6.13532 3.58504 7.72591 3.06714 9.18004 3.06714C10.781 3.06714 12.2443 3.70685 12.2443 5.0301C12.2443 5.97654 11.516 6.42697 10.8177 6.83271C9.97247 7.32257 9.6594 7.50572 9.6594 8.13492V8.22694C9.6594 8.28504 9.62919 8.34077 9.57543 8.38185C9.52166 8.42294 9.44874 8.44602 9.3727 8.44602H8.4438C8.36855 8.44603 8.29632 8.42343 8.24268 8.3831C8.18904 8.34277 8.15831 8.28794 8.1571 8.23044L8.15252 8.04028C8.10894 7.22793 8.72018 6.72755 9.49197 6.29902C10.1686 5.90994 10.5986 5.65405 10.5986 5.09758C10.5986 4.37461 9.87843 4.07403 9.09174 4.07403C8.17087 4.07403 7.65481 4.49292 7.55275 5.06779C7.5321 5.18784 7.40596 5.28687 7.2477 5.28687H6.3016H6.30275ZM8.96903 10.933C8.29931 10.933 7.81192 10.5878 7.81192 10.1207C7.81192 9.63694 8.29931 9.29693 8.97018 9.29693C9.66857 9.29693 10.1491 9.63694 10.1491 10.1207C10.1491 10.5878 9.66743 10.933 8.96903 10.933Z" fill="white"/>
</svg>
