<svg width="19" height="17" viewBox="0 0 19 17" fill="none" xmlns="http://www.w3.org/2000/svg">
<path d="M18.1036 3.17175C18.0218 3.10041 17.9217 3.04272 17.8094 3.00231C17.6971 2.9619 17.5752 2.93963 17.4511 2.93689C15.5239 2.89839 13.0853 1.32368 11.473 0.705733C10.4771 0.32521 9.81957 0.0743087 9.3258 0.00821456C9.22554 -0.00294921 9.12367 -0.00273298 9.0235 0.00885626C8.52973 0.0749504 7.87221 0.325852 6.87713 0.706374C5.26483 1.32368 2.82623 2.89839 0.899027 2.93689C0.774889 2.93977 0.652847 2.9621 0.540466 3.0025C0.428085 3.0429 0.327761 3.10051 0.245711 3.17175C0.0756411 3.31878 -0.0121063 3.51096 0.0013469 3.70692C0.415338 10.1386 3.4342 14.119 8.73127 16.4323C8.86899 16.492 9.02182 16.5228 9.17381 16.5228C9.3258 16.5228 9.47863 16.492 9.61719 16.4323C14.9143 14.119 17.9323 10.1386 18.3471 3.70692C18.3613 3.51099 18.2738 3.31867 18.1036 3.17175ZM13.8915 5.7013L9.42153 10.7418C9.26114 10.9227 9.00922 11.0427 8.75982 11.0427C8.50958 11.0427 8.23162 10.9381 8.05612 10.804L4.90542 8.39576C4.80255 8.31686 4.7448 8.21003 4.7448 8.09866C4.7448 7.98728 4.80255 7.88045 4.90542 7.80155L5.68386 7.20542C5.78732 7.12713 5.92704 7.08321 6.07266 7.08321C6.21827 7.08321 6.35799 7.12713 6.46145 7.20542L8.51042 8.77115L12.0701 4.75609C12.1524 4.66421 12.279 4.60096 12.4222 4.58016C12.5654 4.55936 12.7135 4.5827 12.8342 4.64507L13.7453 5.11736C13.8657 5.1802 13.9487 5.27688 13.976 5.3863C14.0034 5.49571 13.973 5.60896 13.8915 5.7013Z" fill="white"/>
</svg>
