<svg width="19" height="10" viewBox="0 0 19 10" fill="none" xmlns="http://www.w3.org/2000/svg">
<path d="M11.9266 4.20636H18.3486V5.60848H11.9266V4.20636ZM12.844 7.0106H18.3486V8.41272H12.844V7.0106ZM11.0092 1.40212H18.3486V2.80424H11.0092V1.40212ZM1.83486 9.81484H11.0092V9.11378C11.0092 7.18096 8.95137 5.60848 6.42201 5.60848H4.58715C2.0578 5.60848 0 7.18096 0 9.11378V9.81484H1.83486ZM5.50458 4.90742C7.33486 4.90742 8.71559 3.85232 8.71559 2.45371C8.71559 1.0551 7.33486 0 5.50458 0C3.67431 0 2.29358 1.0551 2.29358 2.45371C2.29358 3.85232 3.67431 4.90742 5.50458 4.90742Z" fill="white"/>
</svg>
