<svg width="19" height="13" viewBox="0 0 19 13" fill="none" xmlns="http://www.w3.org/2000/svg">
<path d="M9.17431 0C8.83043 -3.9157e-09 8.48991 0.051758 8.17221 0.152319C7.8545 0.25288 7.56583 0.400274 7.32267 0.586087C7.07951 0.771899 6.88662 0.99249 6.75503 1.23527C6.62343 1.47804 6.5557 1.73825 6.5557 2.00103C6.5557 2.2638 6.62343 2.52401 6.75503 2.76678C6.88662 3.00956 7.07951 3.23015 7.32267 3.41596C7.56583 3.60178 7.8545 3.74917 8.17221 3.84973C8.48991 3.95029 8.83043 4.00205 9.17431 4.00205C9.8688 4.00205 10.5349 3.79123 11.0259 3.41596C11.517 3.0407 11.7929 2.53173 11.7929 2.00103C11.7929 1.47032 11.517 0.961352 11.0259 0.586087C10.5349 0.210822 9.8688 0 9.17431 0ZM15.0721 0.999511C14.5507 0.999511 14.0506 1.15779 13.682 1.43952C13.3133 1.72125 13.1062 2.10336 13.1062 2.50178C13.1062 2.90021 13.3133 3.28232 13.682 3.56405C14.0506 3.84578 14.5507 4.00405 15.0721 4.00405C15.5935 4.00405 16.0935 3.84578 16.4622 3.56405C16.8309 3.28232 17.038 2.90021 17.038 2.50178C17.038 2.10336 16.8309 1.72125 16.4622 1.43952C16.0935 1.15779 15.5935 0.999511 15.0721 0.999511ZM3.27654 0.999511C2.75514 0.999511 2.2551 1.15779 1.88642 1.43952C1.51774 1.72125 1.31062 2.10336 1.31062 2.50178C1.31062 2.90021 1.51774 3.28232 1.88642 3.56405C2.2551 3.84578 2.75514 4.00405 3.27654 4.00405C3.79793 4.00405 4.29797 3.84578 4.66666 3.56405C5.03534 3.28232 5.24246 2.90021 5.24246 2.50178C5.24246 2.10336 5.03534 1.72125 4.66666 1.43952C4.29797 1.15779 3.79793 0.999511 3.27654 0.999511ZM5.24246 6.00007C5.24488 5.73567 5.38403 5.48273 5.62956 5.29642C5.87509 5.11012 6.20706 5.00556 6.55308 5.00557H11.7955C12.1431 5.00557 12.4765 5.11108 12.7223 5.2989C12.9681 5.48673 13.1062 5.74146 13.1062 6.00708V9.01163C13.1061 9.32682 13.0415 9.64007 12.9148 9.94003C12.6246 10.6198 12.0268 11.1982 11.2287 11.5714C10.4306 11.9446 9.4846 12.0882 8.56045 11.9764C7.6363 11.8646 6.7946 11.5046 6.18647 10.9612C5.57835 10.4179 5.24364 9.72662 5.24246 9.01163V6.00007ZM3.93185 6.00708C3.93185 5.64153 4.05898 5.30001 4.28309 5.00557H1.31062C0.963019 5.00557 0.629658 5.11108 0.38387 5.2989C0.138082 5.48673 1.81406e-07 5.74146 1.81406e-07 6.00708V8.51087C-0.000178306 8.92079 0.131358 9.32448 0.383057 9.68648C0.634757 10.0485 0.99892 10.3577 1.44357 10.587C1.88821 10.8164 2.39974 10.9588 2.93323 11.0017C3.46672 11.0447 4.00585 10.9869 4.50327 10.8334C4.12605 10.2691 3.93017 9.64427 3.93185 9.01062V6.00708ZM14.4168 6.00708V9.01163C14.4168 9.66762 14.211 10.2866 13.8453 10.8334C14.3428 10.9869 14.8819 11.0447 15.4154 11.0017C15.9489 10.9588 16.4604 10.8164 16.905 10.587C17.3497 10.3577 17.7139 10.0485 17.9656 9.68648C18.2173 9.32448 18.3488 8.92079 18.3486 8.51087V6.00708C18.3486 5.74146 18.2105 5.48673 17.9647 5.2989C17.719 5.11108 17.3856 5.00557 17.038 5.00557H14.0655C14.2883 5.30001 14.4168 5.64153 14.4168 6.00708Z" fill="white"/>
</svg>
