<svg width="19" height="14" viewBox="0 0 19 14" fill="none" xmlns="http://www.w3.org/2000/svg">
<path d="M17.9689 6.51093L9.6321 0.144984C9.57208 0.0990246 9.50078 0.0625621 9.42229 0.0376838C9.3438 0.0128056 9.25966 0 9.17469 0C9.08971 0 9.00557 0.0128056 8.92708 0.0376838C8.84859 0.0625621 8.77729 0.0990246 8.71727 0.144984L0.380508 6.51093C0.13763 6.69652 0 6.94862 0 7.21155C0 7.75751 0.580881 8.2014 1.29534 8.2014H2.17375V12.7439C2.17375 13.0176 2.46318 13.2388 2.82142 13.2388H7.87934V9.77432H10.1462V13.2388H15.5279C15.8862 13.2388 16.1756 13.0176 16.1756 12.7439V8.2014H17.054C17.3981 8.2014 17.728 8.09777 17.9709 7.91063C18.4749 7.52397 18.4749 6.89759 17.9689 6.51093Z" fill="white"/>
</svg>
