<svg width="19" height="16" viewBox="0 0 19 16" fill="none" xmlns="http://www.w3.org/2000/svg">
<path d="M14.0091 1.32344e-08C14.59 -5.4516e-05 15.1492 0.168398 15.5738 0.471314C15.9984 0.774231 16.2567 1.18902 16.2964 1.63186L16.3015 1.75097V9.6362C16.1793 9.69848 16.0621 9.77167 15.9541 9.85419L12.4809 12.5075L11.5557 11.799C11.1489 11.4874 10.6031 11.3047 10.0275 11.2875H12.4809C12.6835 11.2875 12.8779 11.226 13.0212 11.1165C13.1645 11.007 13.245 10.8585 13.245 10.7036C13.245 10.5487 13.1645 10.4002 13.0212 10.2907C12.8779 10.1812 12.6835 10.1197 12.4809 10.1197H7.38256C7.17989 10.1197 6.98553 10.1812 6.84223 10.2907C6.69893 10.4002 6.61842 10.5487 6.61842 10.7036C6.61842 10.8585 6.69893 11.007 6.84223 11.1165C6.98553 11.226 7.17989 11.2875 7.38256 11.2875H9.84103C9.39614 11.3014 8.96618 11.4141 8.60367 11.6117C8.24117 11.8092 7.96182 12.0832 7.79973 12.4001C7.63765 12.717 7.59985 13.0632 7.69096 13.3962C7.78206 13.7293 7.99813 14.0349 8.31276 14.2756L10.002 15.5704H2.2924C1.71153 15.5704 1.15229 15.402 0.727707 15.099C0.303121 14.7961 0.0448517 14.3813 0.00509436 13.9385L1.73191e-08 13.8186V1.75175C-7.13415e-05 1.30788 0.220371 0.880531 0.616778 0.556081C1.01318 0.231632 1.55599 0.0342737 2.1355 0.00389289L2.2924 1.32344e-08H14.0091ZM5.09423 4.4767C5.09423 4.27022 4.98689 4.07219 4.79581 3.92618C4.60474 3.78017 4.3456 3.69814 4.07538 3.69814C3.80517 3.69814 3.54602 3.78017 3.35495 3.92618C3.16388 4.07219 3.05654 4.27022 3.05654 4.4767C3.05654 4.68319 3.16388 4.88122 3.35495 5.02722C3.54602 5.17323 3.80517 5.25526 4.07538 5.25526C4.3456 5.25526 4.60474 5.17323 4.79581 5.02722C4.98689 4.88122 5.09423 4.68319 5.09423 4.4767ZM7.38256 3.89201C7.17989 3.89201 6.98553 3.95353 6.84223 4.06303C6.69893 4.17254 6.61842 4.32106 6.61842 4.47592C6.61842 4.63079 6.69893 4.77931 6.84223 4.88881C6.98553 4.99832 7.17989 5.05984 7.38256 5.05984H12.4809C12.6835 5.05984 12.8779 4.99832 13.0212 4.88881C13.1645 4.77931 13.245 4.63079 13.245 4.47592C13.245 4.32106 13.1645 4.17254 13.0212 4.06303C12.8779 3.95353 12.6835 3.89201 12.4809 3.89201H7.38256ZM6.61842 7.59015C6.61842 7.91247 6.96075 8.17407 7.38256 8.17407H12.4809C12.5812 8.17407 12.6806 8.15897 12.7733 8.12962C12.866 8.10028 12.9502 8.05726 13.0212 8.00304C13.0921 7.94882 13.1484 7.88445 13.1868 7.81361C13.2252 7.74276 13.245 7.66683 13.245 7.59015C13.245 7.51347 13.2252 7.43754 13.1868 7.36669C13.1484 7.29585 13.0921 7.23148 13.0212 7.17726C12.9502 7.12304 12.866 7.08003 12.7733 7.05068C12.6806 7.02134 12.5812 7.00623 12.4809 7.00623H7.38256C7.17989 7.00623 6.98553 7.06775 6.84223 7.17726C6.69893 7.28677 6.61842 7.43529 6.61842 7.59015ZM5.09423 7.59015C5.09423 7.38366 4.98689 7.18564 4.79581 7.03963C4.60474 6.89362 4.3456 6.81159 4.07538 6.81159C3.80517 6.81159 3.54602 6.89362 3.35495 7.03963C3.16388 7.18564 3.05654 7.38366 3.05654 7.59015C3.05654 7.79664 3.16388 7.99467 3.35495 8.14067C3.54602 8.28668 3.80517 8.36871 4.07538 8.36871C4.3456 8.36871 4.60474 8.28668 4.79581 8.14067C4.98689 7.99467 5.09423 7.79664 5.09423 7.59015ZM5.09423 10.7028C5.09423 10.4963 4.98689 10.2983 4.79581 10.1523C4.60474 10.0063 4.3456 9.92426 4.07538 9.92426C3.80517 9.92426 3.54602 10.0063 3.35495 10.1523C3.16388 10.2983 3.05654 10.4963 3.05654 10.7028C3.05654 10.9093 3.16388 11.1073 3.35495 11.2533C3.54602 11.3994 3.80517 11.4814 4.07538 11.4814C4.3456 11.4814 4.60474 11.3994 4.79581 11.2533C4.98689 11.1073 5.09423 10.9093 5.09423 10.7028ZM12.4809 14.1604L17.0351 10.6802C17.1056 10.6245 17.19 10.58 17.2832 10.5495C17.3765 10.5189 17.4767 10.5028 17.5782 10.5022C17.6797 10.5016 17.7803 10.5164 17.8742 10.5458C17.9681 10.5752 18.0533 10.6185 18.1251 10.6734C18.1968 10.7283 18.2535 10.7935 18.2918 10.8652C18.3302 10.937 18.3495 11.0139 18.3486 11.0914C18.3477 11.169 18.3265 11.2456 18.2864 11.3168C18.2463 11.388 18.1881 11.4525 18.1151 11.5063L13.0208 15.3991C12.8776 15.5084 12.6834 15.5698 12.4809 15.5698C12.2784 15.5698 12.0841 15.5084 11.9409 15.3991L9.39376 13.4519C9.25878 13.3412 9.1853 13.1948 9.18879 13.0435C9.19228 12.8923 9.27248 12.7479 9.41248 12.6409C9.55248 12.534 9.74136 12.4727 9.93933 12.47C10.1373 12.4673 10.3289 12.5235 10.4737 12.6266L12.4809 14.1604Z" fill="white"/>
</svg>
