<svg width="18" height="23" viewBox="0 0 18 23" fill="none" xmlns="http://www.w3.org/2000/svg">
<path d="M10.6886 23H7.31201C7.10045 23 6.89523 22.9104 6.73039 22.746C6.56555 22.5816 6.451 22.3523 6.40572 22.0961L6.02818 19.9295C5.52453 19.6559 5.04697 19.3138 4.60428 18.9095L2.90023 19.5822C2.69853 19.6619 2.4809 19.6537 2.28348 19.559C2.08605 19.4642 1.92071 19.2886 1.81491 19.0613L0.12293 15.4376C0.018243 15.2101 -0.0210537 14.9452 0.0114686 14.6864C0.0439909 14.4275 0.146407 14.19 0.301961 14.0128L1.62382 12.5177C1.56371 11.8405 1.56371 11.1572 1.62382 10.4799L0.301961 8.9884C0.146186 8.81104 0.0436313 8.57334 0.0111037 8.31425C-0.021424 8.05516 0.0180055 7.79007 0.12293 7.5624L1.8112 3.93645C1.917 3.70911 2.08234 3.53348 2.27977 3.43872C2.47719 3.34395 2.69482 3.33576 2.89652 3.4155L4.60057 4.08825C4.82691 3.88125 5.06252 3.68805 5.30556 3.51325C5.54025 3.34995 5.78143 3.2016 6.02818 3.06935L6.40665 0.90505C6.45171 0.648827 6.56605 0.419391 6.73071 0.254781C6.89538 0.0901713 7.10048 0.000275961 7.31201 0H10.6886C10.9001 0.000275961 11.1052 0.0901713 11.2699 0.254781C11.4345 0.419391 11.5489 0.648827 11.5939 0.90505L11.9761 3.0705C12.4791 3.34566 12.9565 3.68768 13.4 4.09055L15.105 3.4178C15.3065 3.33835 15.524 3.3467 15.7212 3.44144C15.9184 3.53619 16.0836 3.71166 16.1894 3.93875L17.8776 7.5647C18.0928 8.03275 18.0186 8.625 17.6986 8.98955L16.3767 10.4845C16.4369 11.1618 16.4369 11.8451 16.3767 12.5223L17.6986 14.0174C18.0186 14.383 18.0928 14.9742 17.8776 15.4422L16.1894 19.0681C16.0836 19.2955 15.9182 19.4711 15.7208 19.5659C15.5234 19.6606 15.3057 19.6688 15.104 19.5891L13.4 18.9163C12.9576 19.3204 12.4804 19.6621 11.977 19.9352L11.5939 22.0961C11.5487 22.3521 11.4343 22.5813 11.2696 22.7457C11.105 22.91 10.9 22.9998 10.6886 23ZM8.99657 6.9C8.01249 6.9 7.06871 7.38464 6.37286 8.24731C5.67701 9.10998 5.28608 10.28 5.28608 11.5C5.28608 12.72 5.67701 13.89 6.37286 14.7527C7.06871 15.6154 8.01249 16.1 8.99657 16.1C9.98066 16.1 10.9244 15.6154 11.6203 14.7527C12.3161 13.89 12.7071 12.72 12.7071 11.5C12.7071 10.28 12.3161 9.10998 11.6203 8.24731C10.9244 7.38464 9.98066 6.9 8.99657 6.9Z" fill="white"/>
</svg>
